<?xml version="1.0" encoding="iso-8859-1"?>
<!-- Generator: Adobe Illustrator 19.0.0, SVG Export Plug-In . SVG Version: 6.00 Build 0)  -->
<svg fill="#fff"  version="1.1" id="Layer_1" xmlns="http://www.w3.org/2000/svg" xmlns:xlink="http://www.w3.org/1999/xlink" x="0px" y="0px"
	 viewBox="0 0 511.999 511.999" style="enable-background:new 0 0 511.999 511.999;" xml:space="preserve">
<g>
	<g>
		<path d="M363.788,53.894c-34.176,0-61.979,27.803-61.979,61.979c0,4.465,3.618,8.084,8.084,8.084c4.466,0,8.084-3.62,8.084-8.084
			c0-25.26,20.55-45.81,45.81-45.81c25.26,0,45.81,20.55,45.81,45.81c0,25.26-20.55,45.81-45.81,45.81
			c-4.466,0-8.084,3.62-8.084,8.084v35.929c0,4.465,3.618,8.084,8.084,8.084s8.084-3.62,8.084-8.084v-28.37
			c30.371-3.973,53.895-30.018,53.895-61.454C425.767,81.698,397.964,53.894,363.788,53.894z"/>
	</g>
</g>
<g>
	<g>
		<circle cx="363.788" cy="245.22" r="10.779"/>
	</g>
</g>
<g>
	<g>
		<circle cx="105.094" cy="309.894" r="21.558"/>
	</g>
</g>
<g>
	<g>
		<circle cx="169.767" cy="309.894" r="21.558"/>
	</g>
</g>
<g>
	<g>
		<path d="M465.349,46.485C435.542,16.721,395.934,0.213,353.82,0.002c-42.211-0.179-82.251,16.335-112.657,46.591
			c-11.93,11.872-21.748,25.238-29.284,39.643c-0.013,0-0.026-0.002-0.039-0.002h-0.041c-56.389,0.282-109.424,22.386-149.336,62.24
			c-39.907,39.85-62.09,92.843-62.458,149.22c-0.371,56.728,21.569,110.26,61.777,150.731
			c40.727,40.997,94.991,63.574,152.796,63.574h179.976c5.319,0,10.002-3.203,11.93-8.161c1.927-4.954,0.642-10.476-3.276-14.068
			c-5.869-5.382-14.812-13.826-24.088-23.494c-8.598-8.964-9.183-22.94-1.358-32.508c30.764-37.62,47.784-85.081,47.995-133.738
			c14.625-7.595,28.146-17.492,40.101-29.525c30.029-30.226,46.415-70.209,46.138-112.579
			C511.72,115.824,495.153,76.246,465.349,46.485z M454.388,259.111c-27.356,27.535-63.802,42.699-102.627,42.699H230.759
			c3.076-2.981,6.453-6.344,9.893-9.93c11.246-11.723,11.993-30.02,1.738-42.561c-16.858-20.615-27.562-45.638-30.994-71.906
			c-0.524-4.01-3.958-6.997-8.002-6.997c-4.871,0-8.658,4.28-8.025,9.11c3.824,29.234,15.74,57.083,34.505,80.028
			c5.084,6.218,4.702,15.304-0.889,21.133c-6.655,6.937-13.082,13.02-17.389,16.974c-3.574,3.282-4.982,8.438-3.219,12.958
			c1.745,4.47,5.97,7.359,10.769,7.359H351.76c20.039,0,39.507-3.64,57.661-10.597c-1.794,42.346-17.318,83.309-44.175,116.153
			c-12.995,15.89-12.047,39.077,2.206,53.936c6.67,6.953,13.165,13.285,18.536,18.361H214.577
			c-53.466,0-103.656-20.883-141.326-58.8c-37.151-37.394-57.422-86.84-57.079-139.23c0.686-104.726,84.483-190.778,188.299-195.205
			c-4.389,11.399-7.435,23.299-9.062,35.507c-0.642,4.826,3.154,9.104,8.023,9.104h0.009c4.032,0,7.465-2.97,7.998-6.966
			c4.115-30.857,18.354-59.527,41.127-82.186c27.163-27.028,62.813-41.886,100.457-41.886c0.238,0,0.476,0.001,0.716,0.002
			c77.838,0.389,141.578,64.028,142.087,141.862C496.077,196.065,481.36,231.962,454.388,259.111z"/>
	</g>
</g>
<g>
</g>
<g>
</g>
<g>
</g>
<g>
</g>
<g>
</g>
<g>
</g>
<g>
</g>
<g>
</g>
<g>
</g>
<g>
</g>
<g>
</g>
<g>
</g>
<g>
</g>
<g>
</g>
<g>
</g>
</svg>
